<svg preserveAspectRatio="none" width="100%" height="100%" overflow="visible" style="display: block;" viewBox="0 0 20 17.6983" fill="none" xmlns="http://www.w3.org/2000/svg">
<g id="Group 21">
<path id="Vector" d="M19.1156 5.9111C18.2614 4.56234 16.9239 3.57325 15.5189 2.80896C13.9454 1.95474 12.2594 1.32532 10.5061 0.943177C8.59532 0.52731 6.19003 -0.371861 4.2231 0.167642C1.96393 0.797061 -0.385154 2.91011 0.0531916 5.43903C0.277984 6.76531 1.1884 7.91175 1.43567 9.23803C1.68294 10.6093 1.19963 12.0142 1.32327 13.3967C1.44691 14.8129 2.25616 16.1616 3.4588 16.9372C4.6502 17.7127 6.21251 17.915 7.56127 17.4542C8.96622 16.9821 10.0677 15.8807 11.3603 15.1501C12.7765 14.3521 14.4062 14.0149 15.9236 13.4417C17.4522 12.8684 18.9695 11.958 19.6439 10.4856C20.307 9.02448 19.9923 7.25985 19.1269 5.9111H19.1156ZM10.3712 11.2499C9.07862 11.7894 7.49383 11.5197 6.45979 10.5755C5.42574 9.63142 5.02111 8.05787 5.48194 6.74283C5.86408 5.64135 6.83069 4.75341 7.9659 4.47242C9.39333 4.11275 11.6525 4.56234 12.3156 6.01225C13.2148 7.96795 12.4056 10.407 10.3712 11.2612V11.2499Z" fill="#A8EAF6"/>
<path id="Vector_2" d="M5.48202 6.73159C5.0212 8.04662 5.42583 9.62017 6.45987 10.5643C7.49392 11.5084 9.07871 11.7782 10.3713 11.2387C12.4056 10.3957 13.2149 7.95671 12.3157 5.98977C11.6413 4.53986 9.39342 4.09027 7.96598 4.44994C6.83078 4.73093 5.86417 5.61886 5.48202 6.72035V6.73159Z" stroke="#0A2627" stroke-miterlimit="10" stroke-linecap="round"/>
</g>
</svg>
