<svg preserveAspectRatio="none" width="100%" height="100%" overflow="visible" style="display: block;" viewBox="0 0 20.9094 20.3682" fill="none" xmlns="http://www.w3.org/2000/svg">
<g id="Group 31">
<path id="Vector" d="M9.32297 17.8271C14.2458 17.8271 18.2365 13.8364 18.2365 8.91354C18.2365 3.99073 14.2458 0 9.32297 0C4.40016 0 0.409427 3.99073 0.409427 8.91354C0.409427 13.8364 4.40016 17.8271 9.32297 17.8271Z" fill="#FF8270"/>
<path id="Vector_2" d="M12.0227 2.52674C11.1914 2.17283 10.2861 1.98353 9.3231 1.98353C5.49595 1.98353 2.39309 5.0864 2.39309 8.91354C2.39309 9.58843 2.49185 10.2386 2.67292 10.8559" stroke="#4F090B" stroke-miterlimit="10" stroke-linecap="round"/>
<path id="Vector_3" d="M0.50005 15.0699C2.45889 17.967 5.76752 19.8682 9.52882 19.8682C15.537 19.8682 20.4094 14.9958 20.4094 8.98762C20.4094 7.81067 20.2201 6.6831 19.8744 5.62138" stroke="#4F090B" stroke-miterlimit="10" stroke-linecap="round"/>
<path id="Vector_4" d="M11.8909 6.51849C11.4794 5.76952 10.7304 5.20162 9.89095 5.02055C9.05144 4.83948 8.13787 5.02055 7.44651 5.52261C6.79631 5.99174 6.33541 6.83948 6.60701 7.58844C6.83746 8.23042 7.53705 8.59255 8.21194 8.67486C8.88684 8.75716 9.56173 8.62548 10.2449 8.56786C10.928 8.51025 11.6523 8.5514 12.2037 8.93823C13.1667 9.60489 13.2243 11.1358 12.5082 12.0658C11.7922 12.9958 10.5329 13.3662 9.3642 13.3086C8.0638 13.2427 6.79631 12.7078 5.84158 11.8106" stroke="#4F090B" stroke-miterlimit="10" stroke-linecap="round"/>
<path id="Vector_5" d="M9.42189 14.7654V13.3086" stroke="#4F090B" stroke-miterlimit="10" stroke-linecap="round"/>
<path id="Vector_6" d="M9.42189 4.94648V3.66254" stroke="#4F090B" stroke-miterlimit="10" stroke-linecap="round"/>
</g>
</svg>
