<svg preserveAspectRatio="none" width="100%" height="100%" overflow="visible" style="display: block;" viewBox="0 0 18.3692 16.9444" fill="none" xmlns="http://www.w3.org/2000/svg">
<g id="Group 6">
<path id="Vector" d="M7.56783 1.27567H11.4654C13.304 1.27567 14.7979 2.76957 14.7979 4.6082H4.23531C4.23531 2.76957 5.7292 1.27567 7.56783 1.27567Z" stroke="#4F090B" stroke-miterlimit="10"/>
<path id="Vector_2" d="M11.8388 0.5V5.47964" stroke="#4F090B" stroke-miterlimit="10" stroke-linecap="round"/>
<path id="Vector_3" d="M7.36675 0.5V5.47964" stroke="#4F090B" stroke-miterlimit="10" stroke-linecap="round"/>
<path id="Vector_4" d="M18.207 8.74514C17.9484 7.11718 17.2876 5.4988 16.1385 4.51245C14.6159 3.2005 12.1644 2.9611 10.6417 2.93237C8.35302 2.8366 7.29964 2.85576 5.67168 3.11432C4.04372 3.3633 2.42534 4.14855 1.39111 5.60413C0.644162 6.6671 0.251537 8.01734 0.0983171 9.36759C-0.0549025 10.7274 0.00255491 12.0968 0.0600123 13.4662C0.0983172 14.3281 1.10382 14.5196 1.85077 14.5962C4.20652 14.826 6.58142 15.0176 8.94675 14.9793C11.6185 14.941 13.8115 15.075 16.196 14.9793C16.5886 14.9601 16.9812 14.941 17.3451 14.7973C17.709 14.6537 18.2357 14.1653 18.2644 13.7152C18.3602 12.0585 18.4655 10.3827 18.207 8.75471V8.74514ZM7.26134 8.80259C7.26134 9.34844 6.82083 9.78895 6.27498 9.78895H3.86177C3.31593 9.78895 2.87542 9.34844 2.87542 8.80259C2.87542 6.92565 4.39804 5.40303 6.27498 5.40303C6.82083 5.40303 7.26134 5.84354 7.26134 6.38939V8.80259ZM11.9537 9.78895H9.54048C8.99463 9.78895 8.55413 9.34844 8.55413 8.80259V6.38939C8.55413 5.84354 8.99463 5.40303 9.54048 5.40303C11.4174 5.40303 12.94 6.92565 12.94 8.80259C12.94 9.34844 12.4995 9.78895 11.9537 9.78895Z" fill="#FFA454"/>
<path id="Vector_5" d="M13.486 16.4444C14.6072 16.4444 15.5161 15.5355 15.5161 14.4142C15.5161 13.293 14.6072 12.3841 13.486 12.3841C12.3648 12.3841 11.4558 13.293 11.4558 14.4142C11.4558 15.5355 12.3648 16.4444 13.486 16.4444Z" stroke="#4F090B" stroke-miterlimit="10"/>
<path id="Vector_6" d="M4.92477 16.4444C6.046 16.4444 6.95493 15.5355 6.95493 14.4142C6.95493 13.293 6.046 12.3841 4.92477 12.3841C3.80354 12.3841 2.89461 13.293 2.89461 14.4142C2.89461 15.5355 3.80354 16.4444 4.92477 16.4444Z" stroke="#4F090B" stroke-miterlimit="10"/>
<path id="Vector_7" d="M3.03828 7.48105C3.58412 7.54808 4.09166 7.81622 4.47471 8.20884C4.85776 8.60147 5.07801 9.13774 5.11632 9.68358" stroke="#4F090B" stroke-miterlimit="10" stroke-linecap="round"/>
</g>
</svg>
